<svg width="22" height="22" viewBox="0 0 22 22" fill="none" xmlns="http://www.w3.org/2000/svg">
<path fill-rule="evenodd" clip-rule="evenodd" d="M4.7221 1.65244L5.56826 4.11801L22 4.35402L20.8536 8.99662C20.6685 9.75652 19.9975 10.3169 19.1886 10.3868L8.07941 11.4884L8.2432 11.8819C8.27465 12.0128 8.26514 12.1496 8.21592 12.2753L7.8884 13.0623C7.7162 13.4781 7.76719 13.9486 8.02486 14.3213C8.26368 14.6989 8.68435 14.9356 9.14395 14.9508H19.7892C20.0907 14.9508 20.3351 15.1857 20.3351 15.4754C20.3351 15.7651 20.0907 16 19.7892 16H9.144C8.31534 15.9761 7.55111 15.5648 7.09684 14.8984C6.65981 14.2113 6.57914 13.3685 6.87845 12.6164L7.12411 12.0131L3.68488 1.96723C3.4909 1.42803 2.96824 1.06178 2.37469 1.04918H0.545907C0.244401 1.04918 0 0.814323 0 0.524591C0 0.234859 0.244401 0 0.545907 0H2.37469C3.44335 0.0146598 4.38528 0.677716 4.7221 1.65244ZM10 19.5C10 20.8807 8.88071 22 7.5 22C6.11929 22 5 20.8807 5 19.5C5 18.1193 6.11929 17 7.5 17C8.88071 17 10 18.1193 10 19.5ZM20 19.5C20 20.8807 18.8807 22 17.5 22C16.1193 22 15 20.8807 15 19.5C15 18.1193 16.1193 17 17.5 17C18.8807 17 20 18.1193 20 19.5Z" fill="white"/>
</svg>
