<svg width="23" height="22" viewBox="0 0 23 22" fill="none" xmlns="http://www.w3.org/2000/svg">
<path d="M2 15.4869V21H5V15.4869C5 15.218 4.83381 15 4.62877 15H2.37123C2.16619 15 2 15.218 2 15.4869Z" fill="#09B1D9"/>
<path d="M8 13.4659V21H11V13.4659C11 13.2086 10.8338 13 10.6288 13H8.37123C8.16619 13 8 13.2086 8 13.4659H8Z" fill="#09B1D9"/>
<path d="M12 11.4304V21H15V11.4304C15 11.1927 14.8338 11 14.6288 11H12.3712C12.1662 11 12 11.1927 12 11.4304H12Z" fill="#09B1D9"/>
<path d="M18 9.43998V21H21V9.43998C21 9.19697 20.8338 9 20.6288 9H18.3712C18.1662 9.00004 18 9.19701 18 9.43998H18Z" fill="#09B1D9"/>
<path d="M12 15.8747V21H15V14C14.0785 14.6758 13.0732 15.3072 12 15.8747Z" fill="white"/>
<path d="M10.3213 17.2667C9.53946 17.5618 8.76344 17.8133 8 18.0227V21H11V17C10.7761 17.0914 10.5499 17.1804 10.3213 17.2667Z" fill="white"/>
<path d="M2 18.4988V21H5V18C3.96219 18.2558 2.95601 18.4211 2 18.4988Z" fill="white"/>
<path d="M18 13.8765V21H21V11C20.2167 11.9902 19.2011 12.9658 18 13.8765Z" fill="white"/>
<path d="M0 21.6906V21.3094C0 21.1385 0.20718 21 0.462785 21H22.5372C22.7928 21 23 21.1385 23 21.3094V21.6906C23 21.8615 22.7928 22 22.5372 22H0.462785C0.20718 22 0 21.8615 0 21.6906Z" fill="white"/>
<path d="M21.2326 0H17.8705C17.6082 0 17.3957 0.207742 17.3957 0.464042V1.03596C17.3957 1.29226 17.6082 1.50001 17.8705 1.50001H19.3799L15.3512 5.43751H12.1679C11.9528 5.43751 11.7475 5.52576 11.6022 5.68071L7.08208 10.5H2.4748C2.21256 10.5 2 10.7077 2 10.964V11.536C2 11.7923 2.21256 12 2.4748 12H7.41968C7.63477 12 7.84 11.9118 7.98536 11.7568L12.5054 6.93752H15.6691C15.8726 6.93752 16.0678 6.85851 16.2117 6.71784L20.4652 2.5607V4.03597C20.4652 4.29227 20.6778 4.50002 20.94 4.50002H21.5252C21.7874 4.50002 22 4.29227 22 4.03597V0.74998C22 0.335802 21.6564 0 21.2326 0Z" fill="#09B1D9"/>
</svg>
