<svg width="185" height="30" viewBox="0 0 185 30" fill="none" xmlns="http://www.w3.org/2000/svg">
<path fill-rule="evenodd" clip-rule="evenodd" d="M155.176 8.28771C154.627 8.76257 153.902 9 153 9C152.098 9 151.373 8.76257 150.824 8.28771C150.275 7.81285 150 7.2216 150 6.51397C150 5.78771 150.275 5.18715 150.824 4.71229C151.373 4.23743 152.098 4 153 4C153.902 4 154.627 4.23743 155.176 4.71229C155.725 5.18715 156 5.78771 156 6.51397C156 7.2216 155.725 7.81285 155.176 8.28771ZM140.535 25.2236C139.702 25.7412 138.706 26 137.547 26C136.297 26 135.179 25.6921 134.192 25.0763C133.205 24.4605 132.426 23.5725 131.856 22.4123C131.285 21.2521 131 19.8956 131 18.3427C131 16.772 131.285 15.411 131.856 14.2597C132.426 13.1084 133.205 12.2249 134.192 11.6091C135.179 10.9933 136.297 10.6854 137.547 10.6854C138.706 10.6854 139.702 10.9442 140.535 11.4618C141.368 11.9795 141.975 12.6845 142.355 13.577V6H147V25.8126H142.355V23.1084C141.975 24.0009 141.368 24.7059 140.535 25.2236ZM44.7944 19.3352V26H40V7H47.7664C50.1215 7 51.9159 7.55988 53.1495 8.67963C54.3832 9.79939 55 11.3088 55 13.2079C55 14.3904 54.7243 15.443 54.1729 16.3656C53.6215 17.2883 52.8037 18.0139 51.7196 18.5424C50.6355 19.071 49.3178 19.3352 47.7664 19.3352H44.7944ZM45 15H47.2895C49.0965 15 50 14.1757 50 12.5272C50 10.8424 49.0965 10 47.2895 10H45V15ZM61.7107 26V19.2447C61.7107 18.0213 62.0551 17.1525 62.7438 16.6383C63.4325 16.1241 64.4013 15.867 65.6501 15.867H67V11C65.9164 11 64.9109 11.266 63.9835 11.7979C63.056 12.3298 62.2984 13.0479 61.7107 13.9521V11.1596H57V26H61.7107ZM80.1174 25.0953C78.9108 25.6984 77.5429 26 76.0138 26C74.4847 26 73.1123 25.6984 71.8964 25.0953C70.6805 24.4921 69.7271 23.6224 69.0363 22.486C68.3454 21.3497 68 20.021 68 18.5C68 16.979 68.3454 15.6503 69.0363 14.514C69.7271 13.3776 70.6805 12.5079 71.8964 11.9047C73.1123 11.3016 74.4847 11 76.0138 11C77.5429 11 78.9108 11.3016 80.1174 11.9047C81.3241 12.5079 82.2729 13.3776 82.9637 14.514C83.6546 15.6503 84 16.979 84 18.5C84 20.021 83.6546 21.3497 82.9637 22.486C82.2729 23.6224 81.3241 24.4921 80.1174 25.0953ZM76.013 22C75.1645 22 74.4502 21.703 73.8701 21.1091C73.29 20.5152 73 19.6497 73 18.5127C73 17.3758 73.29 16.5061 73.8701 15.9036C74.4502 15.3012 75.1645 15 76.013 15C76.8615 15 77.5714 15.3012 78.1429 15.9036C78.7143 16.5061 79 17.3758 79 18.5127C79 19.6497 78.7143 20.5152 78.1429 21.1091C77.5714 21.703 76.8615 22 76.013 22ZM98.509 24.4397C97.1913 25.4799 95.5578 26 93.6083 26C92.1282 26 90.815 25.6984 89.6688 25.0953C88.5226 24.4921 87.6245 23.6224 86.9747 22.486C86.3249 21.3497 86 20.021 86 18.5C86 16.9615 86.3204 15.6285 86.9612 14.5009C87.602 13.3733 88.5 12.5079 89.6552 11.9047C90.8105 11.3016 92.1282 11 93.6083 11C95.5578 11 97.1913 11.5201 98.509 12.5603C99.8267 13.6005 100.657 15.0297 101 16.8479H96.0993C95.9549 16.2185 95.657 15.729 95.2058 15.3794C94.7545 15.0297 94.1859 14.8549 93.5 14.8549C92.6877 14.8549 92.0199 15.1652 91.4964 15.7858C90.9729 16.4065 90.7112 17.3112 90.7112 18.5C90.7112 19.6888 90.9729 20.5935 91.4964 21.2142C92.0199 21.8348 92.6877 22.1451 93.5 22.1451C94.1859 22.1451 94.7545 21.9703 95.2058 21.6206C95.657 21.271 95.9549 20.7815 96.0993 20.1521H101C100.657 21.9703 99.8267 23.3995 98.509 24.4397ZM107.711 26V19.2447C107.711 18.0213 108.055 17.1525 108.744 16.6383C109.433 16.1241 110.401 15.867 111.65 15.867H113V11C111.916 11 110.911 11.266 109.983 11.7979C109.056 12.3298 108.298 13.0479 107.711 13.9521V11.1596H103V26H107.711ZM124.948 25.3051C123.928 25.7684 122.792 26 121.54 26C120.073 26 118.772 25.6984 117.636 25.0953C116.5 24.4921 115.61 23.6224 114.966 22.486C114.322 21.3497 114 20.021 114 18.5C114 16.9615 114.318 15.6285 114.953 14.5009C115.588 13.3733 116.478 12.5079 117.623 11.9047C118.767 11.3016 120.073 11 121.54 11C123.025 11 124.331 11.2972 125.458 11.8916C126.585 12.486 127.457 13.3208 128.074 14.396C128.691 15.4712 129 16.708 129 18.1066C129 18.4738 128.955 18.8759 128.866 19.3129H118.481C118.535 20.4143 118.821 21.2054 119.34 21.6862C119.859 22.167 120.521 22.4073 121.326 22.4073C122.005 22.4073 122.569 22.2413 123.016 21.9091C123.463 21.5769 123.758 21.1486 123.902 20.6241H128.758C128.562 21.6556 128.132 22.5778 127.47 23.3907C126.809 24.2037 125.968 24.8418 124.948 25.3051ZM124.999 17H119C119.073 16.0182 119.394 15.2727 119.963 14.7636C120.532 14.2545 121.247 14 122.11 14C122.935 14 123.628 14.25 124.187 14.75C124.747 15.25 125.017 16 124.999 17ZM139.486 22C138.438 22 137.595 21.6912 136.957 21.0735C136.319 20.4559 136 19.598 136 18.5C136 17.402 136.319 16.5441 136.957 15.9265C137.595 15.3088 138.438 15 139.486 15C140.514 15 141.357 15.3131 142.014 15.9393C142.671 16.5656 143 17.4191 143 18.5C143 19.5637 142.671 20.413 142.014 21.0478C141.357 21.6826 140.514 22 139.486 22ZM155 11H150V26H155V11ZM167 21.9813V26H164.855C163.035 26 161.619 25.558 160.607 24.6741C159.595 23.7902 159.089 22.3276 159.089 20.2863V14.682H157V10.7453H159.089V7H163.852V10.7453H166.972V14.682H163.852V20.3683C163.852 20.9698 163.978 21.389 164.228 21.6259C164.479 21.8628 164.902 21.9813 165.496 21.9813H167ZM175.547 26C176.706 26 177.702 25.7465 178.535 25.2395C179.368 24.7325 179.984 24.042 180.382 23.1678V25.8164H185V11.1836H180.382V13.8322C179.984 12.958 179.368 12.2675 178.535 11.7605C177.702 11.2535 176.706 11 175.547 11C174.297 11 173.179 11.3016 172.192 11.9047C171.205 12.5079 170.426 13.3733 169.856 14.5009C169.285 15.6285 169 16.9615 169 18.5C169 20.021 169.285 21.3497 169.856 22.486C170.426 23.6224 171.205 24.4921 172.192 25.0953C173.179 25.6984 174.297 26 175.547 26ZM173.957 21.0735C174.595 21.6912 175.438 22 176.486 22C177.514 22 178.357 21.6826 179.014 21.0478C179.671 20.413 180 19.5637 180 18.5C180 17.4191 179.671 16.5656 179.014 15.9393C178.357 15.3131 177.514 15 176.486 15C175.438 15 174.595 15.3088 173.957 15.9265C173.319 16.5441 173 17.402 173 18.5C173 19.598 173.319 20.4559 173.957 21.0735Z" fill="#1B1E76"/>
<rect width="31" height="30" rx="5" fill="#1B1E76"/>
<path d="M18.1212 7H14.4174C12.5282 7.01001 11 8.46504 11 10.2536V10.7285C11.7747 9.65736 13.0483 9.0209 14.4174 9.0209H18.1212C20.9229 9.0209 23.3003 11.0317 23.4382 13.5073C23.5125 14.8209 23.0242 16.0739 22.0797 17.0237C21.2094 17.8927 20.0846 18.408 18.8428 18.499C18.2273 19.2669 17.8876 20.1864 17.8876 21.1363V21.2676C17.9514 20.904 18.2273 20.621 18.5882 20.5199C20.509 20.4895 22.292 19.7519 23.6186 18.4181C24.977 17.0641 25.6563 15.2756 25.5607 13.4062C25.3591 9.87965 22.0267 7 18.1212 7Z" fill="white"/>
<path d="M18.8676 18.5547C18.2501 19.3224 17.9094 20.2419 17.9094 21.1916V21.3229C17.8988 21.3836 17.8988 21.4645 17.8988 21.5352C17.8988 23.3941 16.3444 24.8692 14.4494 24.8692C12.5437 24.8692 11 23.3941 11 21.5957V10.7853C11.7771 9.71425 13.0547 9.07788 14.4282 9.07788C13.7147 9.08802 13.1292 9.6334 13.1292 10.3105V21.5957C13.1292 22.2828 13.7147 22.8485 14.4494 22.8485C15.1733 22.8485 15.7695 22.2828 15.7695 21.5957C15.6844 20.1813 16.7703 18.8578 18.2927 18.5748L18.4949 18.5647C18.6228 18.5647 18.7505 18.5647 18.8676 18.5547Z" fill="#DBDBDB"/>
<path d="M18.8676 18.4973C18.6183 19.1445 18.5278 19.8321 18.5957 20.5195C18.2104 20.6207 17.9158 20.9039 17.8477 21.2677V21.1363C17.8477 20.1859 18.2104 19.2657 18.8676 18.4973Z" fill="#7C7C7C"/>
<path d="M14.351 9.07788C13.0085 9.07788 11.7596 9.69743 11 10.7401C11.6456 10.3252 12.3758 10.042 13.1437 9.90894C13.31 9.43105 13.7899 9.08583 14.351 9.07788Z" fill="#7C7C7C"/>
</svg>
