<?xml version="1.0" encoding="iso-8859-1"?>
<!-- Generator: Adobe Illustrator 19.0.0, SVG Export Plug-In . SVG Version: 6.00 Build 0)  -->
<svg version="1.1" id="Capa_1" xmlns="http://www.w3.org/2000/svg" xmlns:xlink="http://www.w3.org/1999/xlink" x="0px" y="0px"
	 viewBox="0 0 512 512" style="enable-background:new 0 0 512 512;" xml:space="preserve">
<g>
	<polygon style="fill:#D4F5FE;" points="493.396,270.744 256.875,34.348 256,35.222 255.125,34.348 18.604,270.744 71.206,323.345 
		256,138.427 440.794,323.345 	"/>
	<rect x="199.775" y="352.47" style="fill:#D4F5FE;" width="112.451" height="124.945"/>
</g>
<path style="fill:#29CBFC;" d="M506.64,257.499L270.244,21.353c-3.511-3.511-8.271-5.498-13.244-5.498h-1.874
	c-5.01-0.025-9.833,1.949-13.369,5.498L5.36,257.499c-7.147,7.284-7.147,18.954,0,26.238l52.602,52.602
	c2.899,2.786,6.635,4.536,10.62,4.998v136.065c0,10.345,8.396,18.742,18.742,18.742h337.352c10.345,0,18.742-8.396,18.742-18.742
	V341.587c3.986-0.462,7.722-2.212,10.62-4.998l52.602-52.852C513.787,276.454,513.787,264.784,506.64,257.499z M218.516,458.661
	v-87.462h74.967v87.462H218.516z M405.934,458.661h-74.967V352.458c0-10.345-8.396-18.742-18.742-18.742H199.775
	c-10.345,0-18.742,8.396-18.742,18.742v106.203h-74.967V314.974l0,0L256,165.04l149.934,149.934l0,0V458.661z M440.794,296.232
	l-171.55-171.05c-7.322-7.309-19.167-7.309-26.488,0l-171.55,171.05l-26.114-24.989L256,59.836l210.907,211.407L440.794,296.232z"/>
<g>
</g>
<g>
</g>
<g>
</g>
<g>
</g>
<g>
</g>
<g>
</g>
<g>
</g>
<g>
</g>
<g>
</g>
<g>
</g>
<g>
</g>
<g>
</g>
<g>
</g>
<g>
</g>
<g>
</g>
</svg>
